<mxfile host="app.diagrams.net" modified="2020-12-08T15:46:57.430Z" agent="5.0 (X11)" etag="OMaIWbNLwfvfyyLhiwMs" version="13.11.0" type="github">
  <diagram id="zKz3tm-ctvzSG_q_yxWB" name="PÃ¡gina-1">
    <mxGraphModel dx="868" dy="492" grid="1" gridSize="10" guides="1" tooltips="1" connect="1" arrows="1" fold="1" page="1" pageScale="1" pageWidth="827" pageHeight="1169" math="0" shadow="0">
      <root>
        <mxCell id="0" />
        <mxCell id="1" parent="0" />
      </root>
    </mxGraphModel>
  </diagram>
</mxfile>
